<svg class="icon" viewBox="0 0 220 58" xmlns="http://www.w3.org/2000/svg" xml:space="preserve"
    style="fill-rule:evenodd;clip-rule:evenodd;stroke-linejoin:round;stroke-miterlimit:2">
    <path
        d="M2.84 4.76v.56c0 1.167.13 2.027.39 2.58.253.547.727.82 1.42.82h.12c1.013 0 1.52-.647 1.52-1.94h2.26v.12c0 1.327-.32 2.29-.96 2.89-.647.593-1.627.89-2.94.89-1.427 0-2.467-.423-3.12-1.27C.877 8.57.55 7.207.55 5.32v-.56c0-1.887.327-3.253.98-4.1C2.183-.18 3.223-.6 4.65-.6c1.327 0 2.307.3 2.94.9.64.6.96 1.573.96 2.92v.5H6.29c0-.8-.11-1.393-.33-1.78-.22-.387-.617-.58-1.19-.58h-.12c-.693 0-1.167.273-1.42.82-.26.553-.39 1.413-.39 2.58Zm10.15 5.92c-1.147 0-2.013-.327-2.6-.98-.58-.653-.87-1.54-.87-2.66v-.5c0-1.12.29-2.007.87-2.66.587-.653 1.453-.98 2.6-.98 1.16 0 2.03.327 2.61.98.573.653.86 1.54.86 2.66v.5c0 1.12-.287 2.007-.86 2.66-.58.653-1.45.98-2.61.98Zm-1.26-3.64c0 1.16.42 1.74 1.26 1.74.84 0 1.26-.58 1.26-1.74v-.5c0-1.16-.42-1.74-1.26-1.74-.84 0-1.26.58-1.26 1.74v.5Zm7.79-.5v.5c0 1.16.397 1.74 1.19 1.74.34 0 .603-.093.79-.28.18-.187.27-.433.27-.74h2.09v.3c0 .793-.273 1.43-.82 1.91-.547.473-1.34.71-2.38.71-1.127 0-1.967-.327-2.52-.98-.56-.653-.84-1.54-.84-2.66v-.5c0-1.12.28-2.007.84-2.66.553-.653 1.393-.98 2.52-.98 1.04 0 1.833.247 2.38.74.547.493.82 1.16.82 2v.32h-2.09c0-.773-.353-1.16-1.06-1.16-.793 0-1.19.58-1.19 1.74Zm7.65 3.96h-2.21V-.7h2.21v6.3l2.06-2.52h2.65l-2.45 2.81 2.45 4.61H29.3l-1.4-2.86-.73.84v2.02Zm9.82.18c-.807 0-1.443-.27-1.91-.81v3.43h-2.21V5.18l-.12-2.1h1.97l.15.91c.487-.727 1.193-1.09 2.12-1.09 1.84 0 2.76 1.213 2.76 3.64v.5c0 2.427-.92 3.64-2.76 3.64Zm-.65-5.88c-.52 0-.94.233-1.26.7v2.58c.32.467.74.7 1.26.7.793 0 1.19-.58 1.19-1.74v-.5c0-1.16-.397-1.74-1.19-1.74Zm6.79 5.7h-2.21V3.08h2.21v7.42ZM40.87-.31h2.32v2.34h-2.32V-.31ZM47.5.98v2.1h1.91v1.93H47.5v2.68c0 .427.09.713.27.86.173.153.447.23.82.23.32 0 .547-.033.68-.1v1.82c-.22.12-.617.18-1.19.18-1.86 0-2.79-.92-2.79-2.76V5.01h-1.13V3.08h1.13V.98h2.21Zm6.04 0v2.1h1.9v1.93h-1.9v2.68c0 .427.087.713.26.86.18.153.457.23.83.23.313 0 .537-.033.67-.1v1.82c-.213.12-.61.18-1.19.18-1.86 0-2.79-.92-2.79-2.76V5.01h-1.13V3.08h1.13V.98h2.22Z"
        style="fill:#2a1b3c;fill-rule:nonzero" transform="translate(68.78 11.456) scale(2.72763)" />
    <path
        d="M16 32c8.837 0 16-7.163 16-16S24.837 0 16 0 0 7.163 0 16s7.163 16 16 16ZM14.817 6.421h2v8.886h8.887v2H14.817V6.421Zm-5.959.437h2v14.283h14.283v2H8.858V6.858Z"
        style="fill:url(#a);fill-rule:nonzero" transform="scale(1.79001)" />
    <defs>
        <linearGradient id="a" x1="0" y1="0" x2="1" y2="0" gradientUnits="userSpaceOnUse"
            gradientTransform="scale(32) rotate(25)">
            <stop offset="0" style="stop-color:#5412ce;stop-opacity:1" />
            <stop offset="1" style="stop-color:#a480e6;stop-opacity:1" />
        </linearGradient>
    </defs>
</svg>
