<svg xmlns="http://www.w3.org/2000/svg" viewBox="0 0 63 63">
    <path d="M30.742 58.643c-2.588 0-5.074-.334-7.459-1.001a28.107 28.107 0 0 1-12.39-7.227 28.088 28.088 0 0 1-4.394-5.688 28.17 28.17 0 0 1-2.832-6.714 27.563 27.563 0 0 1-1.001-7.446c0-2.572.333-5.054 1.001-7.447a28.066 28.066 0 0 1 7.226-12.402 28.066 28.066 0 0 1 5.689-4.394 28.231 28.231 0 0 1 6.701-2.832 27.525 27.525 0 0 1 7.459-1.001c2.572 0 5.054.333 7.446 1.001a28.17 28.17 0 0 1 6.714 2.832 28.094 28.094 0 0 1 5.689 4.394 28.102 28.102 0 0 1 4.394 5.689 28.18 28.18 0 0 1 2.832 6.713 27.605 27.605 0 0 1 1.001 7.447c0 2.588-.334 5.074-1.001 7.458a28.123 28.123 0 0 1-7.226 12.39 28.134 28.134 0 0 1-5.689 4.395 28.17 28.17 0 0 1-6.714 2.832 27.592 27.592 0 0 1-7.446 1.001Z"/>
    <path fill="#ffc83d" d="M55.107 33.716a23.808 23.808 0 0 1-2.356 7.8 24.722 24.722 0 0 1-4.797 6.58 8.83 8.83 0 0 0-2.649.952c-.822.456-1.64.92-2.454 1.392-.407.244-.781.46-1.123.647a6.544 6.544 0 0 0-.94.622 5.521 5.521 0 0 0-.793.782c-.244.293-.48.667-.708 1.123a24.622 24.622 0 0 1-8.545 1.513c-1.807 0-3.585-.187-5.335-.561a22.606 22.606 0 0 1-5.066-1.734c-.52-1.09-1.257-1.9-2.209-2.429a8.355 8.355 0 0 0-3.137-.989 23.899 23.899 0 0 1-5.322-6.152 24.186 24.186 0 0 1-2.955-7.593c.245-.83.411-1.672.501-2.527.089-.854.134-1.713.134-2.575 0-.863-.049-1.721-.146-2.576a16.73 16.73 0 0 0-.489-2.527c.489-2.36 1.266-4.504 2.332-6.433 1.066-1.929 2.413-3.772 4.041-5.53a26.54 26.54 0 0 1 .915-.964c.171-.171.342-.33.513-.476.171-.147.329-.26.476-.342.228-.13.468-.216.72-.256.252-.041.509-.061.769-.061.228 0 .46.008.696.024.236.016.468.025.696.025.472 0 .826-.057 1.062-.171.236-.114.403-.257.5-.428.098-.17.151-.37.159-.598a9.22 9.22 0 0 1 .049-.683c.024-.228.073-.448.146-.659.073-.212.232-.399.476-.562a3.83 3.83 0 0 1 .733-.366c.26-.098.512-.196.757-.293a24.725 24.725 0 0 1 4.406-1.27 24.811 24.811 0 0 1 4.578-.415c1.465 0 2.909.126 4.333.379a23.59 23.59 0 0 1 4.212 1.159c.39.814.903 1.53 1.538 2.149a11.108 11.108 0 0 0 2.112 1.611c.773.456 1.591.826 2.453 1.111.863.285 1.717.492 2.564.622a24.738 24.738 0 0 1 4.797 6.58 23.822 23.822 0 0 1 2.356 7.8 6.229 6.229 0 0 0-.586.928 4.17 4.17 0 0 0-.329.903 6.11 6.11 0 0 0-.147.965c-.024.333-.037.696-.037 1.086 0 .537.066.993.196 1.367.13.375.431.725.903 1.05Z"/>
    <path fill="#eba300" d="M20.366 8.326c.472.325.858.748 1.16 1.269.301.521.451 1.074.451 1.66 0 .489-.093.944-.281 1.367a3.621 3.621 0 0 1-1.867 1.868 3.344 3.344 0 0 1-1.367.281c-.44 0-.859-.077-1.258-.232a3.448 3.448 0 0 1-1.831-1.599 3.305 3.305 0 0 1-.378-1.221 25.086 25.086 0 0 1 5.371-3.393Zm17.383 2.929c0-.683.134-1.347.403-1.989a5.215 5.215 0 0 1 1.135-1.697 25.056 25.056 0 0 1 4.638 2.282c1.465.92 2.808 1.99 4.029 3.211-.196.521-.46.993-.794 1.416a5.813 5.813 0 0 1-1.135 1.099 4.855 4.855 0 0 1-1.404.708 5.27 5.27 0 0 1-1.599.244 5.09 5.09 0 0 1-2.051-.415 5.383 5.383 0 0 1-2.807-2.808 5.07 5.07 0 0 1-.415-2.051ZM18.462 46.363c.488 0 .944.093 1.367.28.423.188.793.44 1.111.757.317.318.569.688.756 1.111.188.423.281.879.281 1.367 0 .586-.15 1.14-.451 1.66a3.884 3.884 0 0 1-1.16 1.27 25.052 25.052 0 0 1-5.371-3.394c.049-.439.175-.842.378-1.208a3.644 3.644 0 0 1 1.843-1.611 3.348 3.348 0 0 1 1.246-.232Zm24.56-1.758c.554 0 1.087.085 1.599.256.513.171.981.407 1.404.708.423.301.802.668 1.135 1.099.334.431.598.899.794 1.404a22.902 22.902 0 0 1-4.029 3.21 24.998 24.998 0 0 1-4.638 2.283 5.215 5.215 0 0 1-1.135-1.697 5.107 5.107 0 0 1-.403-1.99c0-.732.138-1.416.415-2.05a5.373 5.373 0 0 1 2.807-2.808 5.074 5.074 0 0 1 2.051-.415Zm12.061-17.188c.065.521.118 1.046.158 1.575a20.374 20.374 0 0 1 0 3.149c-.04.529-.093 1.054-.158 1.575a4.294 4.294 0 0 1-.745.269 3.167 3.167 0 0 1-.793.097c-.489 0-.944-.093-1.368-.28a3.65 3.65 0 0 1-1.11-.757 3.462 3.462 0 0 1-1.014-2.478 3.473 3.473 0 0 1 1.014-2.478c.317-.318.687-.57 1.11-.757a3.349 3.349 0 0 1 1.368-.281c.276 0 .541.033.793.098s.501.154.745.268ZM7.939 25.293c.733 0 1.416.139 2.051.415a5.244 5.244 0 0 1 1.66 1.136c.472.48.846 1.037 1.123 1.672a5.07 5.07 0 0 1 .415 2.051c0 .732-.138 1.416-.415 2.051a5.504 5.504 0 0 1-1.123 1.672 5.241 5.241 0 0 1-1.66 1.135 5.07 5.07 0 0 1-2.051.415c-.211 0-.419-.016-.622-.049a6.827 6.827 0 0 1-.599-.122 24.752 24.752 0 0 1-.537-5.102 24.84 24.84 0 0 1 .537-5.103c.196-.049.395-.089.599-.122.203-.032.411-.049.622-.049Zm26.319-.879c0 .847-.163 1.644-.489 2.393a6.252 6.252 0 0 1-1.318 1.953 6.278 6.278 0 0 1-1.953 1.319 5.945 5.945 0 0 1-2.393.488 5.94 5.94 0 0 1-2.392-.488 6.27 6.27 0 0 1-1.954-1.319 6.103 6.103 0 0 1-1.306-1.953 6.074 6.074 0 0 1-.476-2.393c0-.846.163-1.639.489-2.38a6.297 6.297 0 0 1 1.318-1.941 6.29 6.29 0 0 1 1.941-1.318 5.839 5.839 0 0 1 2.38-.488c.847 0 1.64.162 2.381.488.74.325 1.391.765 1.953 1.318a6.211 6.211 0 0 1 1.33 1.941c.326.741.489 1.534.489 2.38ZM44.78 35.84c0 .489-.094.944-.281 1.367a3.607 3.607 0 0 1-.757 1.111 3.447 3.447 0 0 1-2.478 1.013 3.472 3.472 0 0 1-2.478-1.013 3.642 3.642 0 0 1-.757-1.111 3.34 3.34 0 0 1-.28-1.367c0-.488.093-.944.28-1.367.188-.423.44-.793.757-1.111a3.666 3.666 0 0 1 1.111-.757c.423-.187.879-.28 1.367-.28.489 0 .944.093 1.368.28.423.188.793.44 1.11.757.318.318.57.688.757 1.111.187.423.281.879.281 1.367Zm-17.554 2.613c0 .374-.069.72-.207 1.037a2.675 2.675 0 0 1-.562.83 2.65 2.65 0 0 1-1.867.769c-.375 0-.721-.069-1.038-.207a2.454 2.454 0 0 1-.818-.574 2.943 2.943 0 0 1-.549-.842 2.499 2.499 0 0 1-.208-1.013 2.5 2.5 0 0 1 .208-1.014c.138-.317.325-.594.561-.83.236-.236.513-.423.83-.561a2.5 2.5 0 0 1 1.014-.208c.358 0 .695.069 1.013.208.317.138.598.321.842.549.244.228.435.505.574.83.138.326.207.667.207 1.026Z"/>
</svg>
