<svg xmlns="http://www.w3.org/2000/svg" xml:space="preserve" fill-rule="evenodd" stroke-linejoin="round" stroke-miterlimit="2" clip-rule="evenodd" viewBox="0 0 63 63">
  <g id="sun" fill-rule="nonzero">
    <path d="m53.203 30.567 4.419 3.906c.374.326.667.72.879 1.184.211.464.317.948.317 1.453 0 .862-.264 1.619-.793 2.27a3.504 3.504 0 0 1-2.039 1.245L50.2 41.797l1.855 5.591c.131.391.196.773.196 1.148 0 .488-.094.944-.281 1.367a3.693 3.693 0 0 1-1.892 1.892 3.344 3.344 0 0 1-1.367.281c-.375 0-.757-.066-1.148-.196l-5.591-1.855-1.172 5.786a3.206 3.206 0 0 1-.451 1.147 3.664 3.664 0 0 1-1.856 1.477 3.506 3.506 0 0 1-1.208.208c-.505 0-.989-.106-1.453-.317a3.453 3.453 0 0 1-1.184-.879l-3.906-4.419-3.906 4.419a3.463 3.463 0 0 1-1.184.879 3.474 3.474 0 0 1-1.453.317 3.5 3.5 0 0 1-2.271-.793 3.504 3.504 0 0 1-1.245-2.039l-1.172-5.786-5.59 1.855a3.63 3.63 0 0 1-1.148.196c-.488 0-.944-.094-1.367-.281a3.68 3.68 0 0 1-1.123-.769 3.675 3.675 0 0 1-.769-1.123 3.344 3.344 0 0 1-.281-1.367c0-.375.065-.757.195-1.148l1.856-5.591-5.786-1.172a3.504 3.504 0 0 1-2.039-1.245 3.494 3.494 0 0 1-.793-2.27c0-.505.106-.989.317-1.453.212-.464.505-.858.879-1.184l4.419-3.906-4.419-3.906a3.457 3.457 0 0 1-.879-1.185 3.467 3.467 0 0 1-.317-1.452c0-.863.264-1.62.793-2.271a3.504 3.504 0 0 1 2.039-1.245l5.786-1.172-1.856-5.591a3.617 3.617 0 0 1-.195-1.147c0-.488.094-.944.281-1.367.187-.423.443-.798.769-1.123.325-.326.7-.582 1.123-.769a3.344 3.344 0 0 1 1.367-.281c.374 0 .757.065 1.148.195l5.59 1.856 1.172-5.786c.179-.83.594-1.51 1.245-2.039.651-.529 1.408-.793 2.271-.793.504 0 .989.105 1.453.317.463.212.858.505 1.184.879l3.906 4.419 3.906-4.419c.326-.374.72-.667 1.184-.879a3.456 3.456 0 0 1 1.453-.317c.423 0 .826.069 1.208.207.383.138.733.334 1.05.586.318.252.586.553.806.903.22.35.37.729.451 1.136l1.172 5.786 5.591-1.856c.391-.13.773-.195 1.148-.195.488 0 .944.094 1.367.281.423.187.797.443 1.123.769.325.325.582.7.769 1.123.187.423.281.879.281 1.367 0 .374-.065.757-.196 1.147L50.2 19.336l5.786 1.172c.83.179 1.51.594 2.039 1.245.529.651.793 1.408.793 2.271 0 .504-.106.989-.317 1.452a3.457 3.457 0 0 1-.879 1.185l-4.419 3.906Z"/>
    <path fill="#ffb900" d="m47.881 30.567 7.421 6.592-9.716 1.977 3.149 9.424-9.424-3.149-1.977 9.716-6.592-7.422-6.592 7.422-1.977-9.716-9.424 3.149 3.149-9.424-9.717-1.977 7.422-6.592-7.422-6.592 9.717-1.978-3.149-9.423 9.424 3.149 1.977-9.717 6.592 7.422 6.592-7.422 1.977 9.717 9.424-3.149-3.149 9.423 9.716 1.978-7.421 6.592Z"/>
    <path fill="#fce100" d="M46.538 30.567a15.628 15.628 0 0 1-2.161 7.971 16.187 16.187 0 0 1-2.478 3.186c-.96.96-2.022 1.786-3.186 2.478a15.628 15.628 0 0 1-7.971 2.161 15.623 15.623 0 0 1-7.971-2.161 16.187 16.187 0 0 1-3.186-2.478 16.112 16.112 0 0 1-2.478-3.186 15.628 15.628 0 0 1-2.161-7.971 15.617 15.617 0 0 1 2.161-7.971 16.112 16.112 0 0 1 2.478-3.186 16.112 16.112 0 0 1 3.186-2.478 15.388 15.388 0 0 1 3.772-1.6 15.662 15.662 0 0 1 4.199-.561c1.448 0 2.848.187 4.199.561 1.351.375 2.608.908 3.772 1.6a16.112 16.112 0 0 1 3.186 2.478c.96.96 1.786 2.022 2.478 3.186a15.617 15.617 0 0 1 2.161 7.971Z"/>
    <path d="M30.742 42.847c-1.123 0-2.238-.179-3.345-.537a9.628 9.628 0 0 1-2.978-1.563 1.896 1.896 0 0 1-.525-.622 1.649 1.649 0 0 1-.183-.769c0-.488.175-.903.525-1.245a1.758 1.758 0 0 1 2.282-.171c1.286.911 2.694 1.367 4.224 1.367.797 0 1.534-.114 2.209-.342a7.834 7.834 0 0 0 1.99-1.025 1.798 1.798 0 0 1 1.05-.342c.488 0 .903.167 1.245.501.342.333.513.744.513 1.232 0 .586-.228 1.058-.684 1.416a9.606 9.606 0 0 1-2.991 1.563 10.845 10.845 0 0 1-3.332.537Zm-7.886-12.28c-.374 0-.72-.069-1.037-.208a2.66 2.66 0 0 1-.831-.561 2.667 2.667 0 0 1-.561-.83 2.58 2.58 0 0 1-.208-1.038v-1.758c0-.358.07-.7.208-1.025.138-.326.33-.602.574-.83.244-.228.525-.411.842-.55a2.511 2.511 0 0 1 1.013-.207c.358 0 .696.069 1.013.207.318.139.594.326.83.562.236.236.424.513.562.83.138.317.207.655.207 1.013v1.758c0 .358-.069.696-.207 1.013a2.97 2.97 0 0 1-.549.843 2.408 2.408 0 0 1-.83.573 2.589 2.589 0 0 1-1.026.208Zm15.772 0c-.375 0-.721-.069-1.038-.208a2.437 2.437 0 0 1-.818-.573 2.948 2.948 0 0 1-.549-.843 2.495 2.495 0 0 1-.208-1.013v-1.758c0-.358.069-.696.208-1.013.138-.317.325-.594.561-.83.236-.236.513-.423.83-.562a2.52 2.52 0 0 1 1.014-.207c.358 0 .695.069 1.013.207.317.139.598.322.842.55.244.228.435.504.574.83.138.325.207.667.207 1.025v1.758c0 .374-.069.72-.207 1.038a2.62 2.62 0 0 1-1.404 1.391 2.584 2.584 0 0 1-1.025.208Z"/>
    <path fill="#ffb900" d="M27.226 30.591h7.032c0 .488-.094.944-.281 1.367a3.624 3.624 0 0 1-1.868 1.868 3.344 3.344 0 0 1-1.367.281c-.488 0-.944-.094-1.367-.281a3.619 3.619 0 0 1-1.868-1.868 3.344 3.344 0 0 1-.281-1.367Z"/>
  </g>
</svg>
