<svg xmlns="http://www.w3.org/2000/svg" preserveAspectRatio="none" xml:space="preserve" style="fill-rule:evenodd;clip-rule:evenodd;stroke-linejoin:round;stroke-miterlimit:2" viewBox="0 0 1250 280"><path d="M.828 267.501c43.75 6.25 124.584 33.542 210 30 85.417-3.541 116.667-45.958 200-47 83.334-1.041 116.667 45.75 200 42 83.334-3.75 116.667-59.583 200-60 83.334-.416 116.667 52.584 200.002 58 83.33 5.417 116.67-32.208 200-32 83.33.209 116.67 38 200 33s116.67-57.625 200-57 116.67 56.042 200 60c83.33 3.959 116.67-44.333 200-41 83.33 3.334 118.75 54.084 200 57 81.25 2.917 96.25-115.291 190-43 93.75 72.292 862.08 204.584 260 390C2058.74 842.918 167.078 1053.34-489.172 1157.5" style="fill:#5412ce;fill-opacity:.05;fill-rule:nonzero" transform="translate(0 -242)"/><path d="M.828 302.501c43.75 6.25 124.584 33.542 210 30 85.417-3.541 116.667-45.958 200-47 83.334-1.041 116.667 45.75 200 42 83.334-3.75 116.667-59.583 200-60 83.334-.416 116.667 52.584 200.002 58 83.33 5.417 116.67-32.208 200-32 83.33.209 116.67 38 200 33s116.67-57.625 200-57 116.67 56.042 200 60c83.33 3.959 116.67-44.333 200-41 83.33 3.334 118.75 54.084 200 57 81.25 2.917 96.25-115.291 190-43 93.75 72.292 862.08 204.584 260 390C2058.74 877.918 167.078 1088.34-489.172 1192.5" style="fill:#5412ce;fill-opacity:.21;fill-rule:nonzero" transform="translate(0 -242)"/><path d="M.828 337.501c43.75 6.25 124.584 33.542 210 30 85.417-3.541 116.667-45.958 200-47 83.334-1.041 116.667 45.75 200 42 83.334-3.75 116.667-59.583 200-60 83.334-.416 116.667 52.584 200.002 58 83.33 5.417 116.67-32.208 200-32 83.33.209 116.67 38 200 33s116.67-57.625 200-57 116.67 56.042 200 60c83.33 3.959 116.67-44.333 200-41 83.33 3.334 118.75 54.084 200 57 81.25 2.917 96.25-115.291 190-43 93.75 72.292 862.08 204.584 260 390C2058.74 912.918 167.078 1123.34-489.172 1227.5" style="fill:#5412ce;fill-opacity:.37;fill-rule:nonzero" transform="translate(0 -242)"/><path d="M.828 372.501c43.75 6.25 124.584 33.542 210 30 85.417-3.541 116.667-45.958 200-47 83.334-1.041 116.667 45.75 200 42 83.334-3.75 116.667-59.583 200-60 83.334-.416 116.667 52.584 200.002 58 83.33 5.417 116.67-32.208 200-32 83.33.209 116.67 38 200 33s116.67-57.625 200-57 116.67 56.042 200 60c83.33 3.959 116.67-44.333 200-41 83.33 3.334 118.75 54.084 200 57 81.25 2.917 96.25-115.291 190-43 93.75 72.292 862.08 204.584 260 390C2058.74 947.918 167.078 1158.34-489.172 1262.5" style="fill:#5412ce;fill-opacity:.53;fill-rule:nonzero" transform="translate(0 -242)"/><path d="M.828 407.501c43.75 6.25 124.584 33.542 210 30 85.417-3.541 116.667-45.958 200-47 83.334-1.041 116.667 45.75 200 42 83.334-3.75 116.667-59.583 200-60 83.334-.416 116.667 52.584 200.002 58 83.33 5.417 116.67-32.208 200-32 83.33.209 116.67 38 200 33s116.67-57.625 200-57 116.67 56.042 200 60c83.33 3.959 116.67-44.333 200-41 83.33 3.334 118.75 54.084 200 57 81.25 2.917 96.25-115.291 190-43 93.75 72.292 862.08 204.584 260 390C2058.74 982.918 167.078 1193.34-489.172 1297.5" style="fill:#5412ce;fill-opacity:.68;fill-rule:nonzero" transform="translate(0 -242)"/><path d="M.828 442.501c43.75 6.25 124.584 33.542 210 30 85.417-3.541 116.667-45.958 200-47 83.334-1.041 116.667 45.75 200 42 83.334-3.75 116.667-59.583 200-60 83.334-.416 116.667 52.584 200.002 58 83.33 5.417 116.67-32.208 200-32 83.33.209 116.67 38 200 33s116.67-57.625 200-57 116.67 56.042 200 60c83.33 3.959 116.67-44.333 200-41 83.33 3.334 118.75 54.084 200 57 81.25 2.917 96.25-115.291 190-43 93.75 72.292 862.08 204.584 260 390C2058.74 1017.92 167.078 1228.34-489.172 1332.5" style="fill:#5412ce;fill-opacity:.84;fill-rule:nonzero" transform="translate(0 -242)"/><path d="M.828 477.501c43.75 6.25 124.584 33.542 210 30 85.417-3.541 116.667-45.958 200-47 83.334-1.041 116.667 45.75 200 42 83.334-3.75 116.667-59.583 200-60 83.334-.416 116.667 52.584 200.002 58 83.33 5.417 116.67-32.208 200-32 83.33.209 116.67 38 200 33s116.67-57.625 200-57 116.67 56.042 200 60c83.33 3.959 116.67-44.333 200-41 83.33 3.334 118.75 54.084 200 57 81.25 2.917 96.25-115.291 190-43 93.75 72.292 862.08 204.584 260 390C2058.74 1052.92 167.078 1263.34-489.172 1367.5" style="fill:#5412ce;fill-rule:nonzero" transform="translate(0 -242)"/></svg>
