<svg xmlns="http://www.w3.org/2000/svg" viewBox="0 0 2400 800">
  <g fill="#5412ceff">
    <path
      d="M.828 267.501c43.75 6.25 124.584 33.542 210 30 85.417-3.541 116.667-45.958 200-47 83.334-1.041 116.667 45.75 200 42 83.334-3.75 116.667-59.583 200-60 83.334-.416 116.667 52.584 200 58 83.334 5.417 116.667-32.208 200-32 83.334.209 116.667 38 200 33 83.334-5 116.667-57.625 200-57 83.334.625 116.667 56.042 200 60 83.334 3.959 116.667-44.333 200-41 83.334 3.334 118.75 54.084 200 57 81.25 2.917 96.25-115.291 190-43 93.75 72.292 862.084 204.584 260 390-602.083 185.417-2493.75 395.834-3150 500"
      opacity=".05" />
    <path
      d="M.828 302.501c43.75 6.25 124.584 33.542 210 30 85.417-3.541 116.667-45.958 200-47 83.334-1.041 116.667 45.75 200 42 83.334-3.75 116.667-59.583 200-60 83.334-.416 116.667 52.584 200 58 83.334 5.417 116.667-32.208 200-32 83.334.209 116.667 38 200 33 83.334-5 116.667-57.625 200-57 83.334.625 116.667 56.042 200 60 83.334 3.959 116.667-44.333 200-41 83.334 3.334 118.75 54.084 200 57 81.25 2.917 96.25-115.291 190-43 93.75 72.292 862.084 204.584 260 390-602.083 185.417-2493.75 395.834-3150 500"
      opacity=".21" />
    <path
      d="M.828 337.501c43.75 6.25 124.584 33.542 210 30 85.417-3.541 116.667-45.958 200-47 83.334-1.041 116.667 45.75 200 42 83.334-3.75 116.667-59.583 200-60 83.334-.416 116.667 52.584 200 58 83.334 5.417 116.667-32.208 200-32 83.334.209 116.667 38 200 33 83.334-5 116.667-57.625 200-57 83.334.625 116.667 56.042 200 60 83.334 3.959 116.667-44.333 200-41 83.334 3.334 118.75 54.084 200 57 81.25 2.917 96.25-115.291 190-43 93.75 72.292 862.084 204.584 260 390-602.083 185.417-2493.75 395.834-3150 500"
      opacity=".37" />
    <path
      d="M.828 372.501c43.75 6.25 124.584 33.542 210 30 85.417-3.541 116.667-45.958 200-47 83.334-1.041 116.667 45.75 200 42 83.334-3.75 116.667-59.583 200-60 83.334-.416 116.667 52.584 200 58 83.334 5.417 116.667-32.208 200-32 83.334.209 116.667 38 200 33 83.334-5 116.667-57.625 200-57 83.334.625 116.667 56.042 200 60 83.334 3.959 116.667-44.333 200-41 83.334 3.334 118.75 54.084 200 57 81.25 2.917 96.25-115.291 190-43 93.75 72.292 862.084 204.584 260 390-602.083 185.417-2493.75 395.834-3150 500"
      opacity=".53" />
    <path
      d="M.828 407.501c43.75 6.25 124.584 33.542 210 30 85.417-3.541 116.667-45.958 200-47 83.334-1.041 116.667 45.75 200 42 83.334-3.75 116.667-59.583 200-60 83.334-.416 116.667 52.584 200 58 83.334 5.417 116.667-32.208 200-32 83.334.209 116.667 38 200 33 83.334-5 116.667-57.625 200-57 83.334.625 116.667 56.042 200 60 83.334 3.959 116.667-44.333 200-41 83.334 3.334 118.75 54.084 200 57 81.25 2.917 96.25-115.291 190-43 93.75 72.292 862.084 204.584 260 390-602.083 185.417-2493.75 395.834-3150 500"
      opacity=".68" />
    <path
      d="M.828 442.501c43.75 6.25 124.584 33.542 210 30 85.417-3.541 116.667-45.958 200-47 83.334-1.041 116.667 45.75 200 42 83.334-3.75 116.667-59.583 200-60 83.334-.416 116.667 52.584 200 58 83.334 5.417 116.667-32.208 200-32 83.334.209 116.667 38 200 33 83.334-5 116.667-57.625 200-57 83.334.625 116.667 56.042 200 60 83.334 3.959 116.667-44.333 200-41 83.334 3.334 118.75 54.084 200 57 81.25 2.917 96.25-115.291 190-43 93.75 72.292 862.084 204.584 260 390-602.083 185.417-2493.75 395.834-3150 500"
      opacity=".84" />
    <path
      d="M.828 477.501c43.75 6.25 124.584 33.542 210 30 85.417-3.541 116.667-45.958 200-47 83.334-1.041 116.667 45.75 200 42 83.334-3.75 116.667-59.583 200-60 83.334-.416 116.667 52.584 200 58 83.334 5.417 116.667-32.208 200-32 83.334.209 116.667 38 200 33 83.334-5 116.667-57.625 200-57 83.334.625 116.667 56.042 200 60 83.334 3.959 116.667-44.333 200-41 83.334 3.334 118.75 54.084 200 57 81.25 2.917 96.25-115.291 190-43 93.75 72.292 862.084 204.584 260 390-602.083 185.417-2493.75 395.834-3150 500" />
  </g>
</svg>
